<svg width="55" height="46" viewBox="0 0 55 46" fill="none" xmlns="http://www.w3.org/2000/svg">
<g clip-path="url(#clip0_3017_10707)">
<g clip-path="url(#clip1_3017_10707)">
<g clip-path="url(#clip2_3017_10707)">
<path d="M23.0009 17.748L22.2839 17.011C20.6009 15.281 17.5149 15.878 16.4009 18.053C15.8779 19.076 15.7599 20.553 16.7149 22.438C17.6349 24.253 19.5489 26.427 23.0009 28.795C26.4529 26.427 28.3659 24.253 29.2869 22.438C30.2419 20.552 30.1249 19.076 29.6009 18.053C28.4869 15.878 25.4009 15.28 23.7179 17.01L23.0009 17.748ZM23.0009 30C7.66787 19.868 18.2799 11.96 22.8249 16.143C22.8849 16.198 22.9439 16.255 23.0009 16.314C23.0573 16.2551 23.116 16.1984 23.1769 16.144C27.7209 11.958 38.3339 19.867 23.0009 30Z" fill="#23A6F0"/>
</g>
<path d="M36.5638 18.612H39.6118V27H38.2678V19.872H36.5638V18.612Z" fill="#23A6F0"/>
</g>
</g>
<defs>
<clipPath id="clip0_3017_10707">
<rect width="56" height="46" fill="white" transform="translate(0.000976562)"/>
</clipPath>
<clipPath id="clip1_3017_10707">
<rect width="56" height="46" fill="white" transform="translate(0.000976562)"/>
</clipPath>
<clipPath id="clip2_3017_10707">
<rect width="16" height="16" fill="white" transform="translate(15.001 15)"/>
</clipPath>
</defs>
</svg>
